<svg xmlns="http://www.w3.org/2000/svg" width="1099.439" height="976.67" viewBox="0 0 1099.439 976.67">
    <rect fill="#F4F6F6" width="100%" height="100%"/>
    <path fill="#F6FAFA" d="M1050.168 543.89c-.453.693-.955 1.36-1.352 2.085-6.06 11.077-17.264 14.437-28.43 8.51-.723-.385-1.438-.786-2.765-1.512L790.41 791.196c1.084 1.553 1.813 2.642 2.587 3.698 8.293 11.32 9.567 23.424 2.67 35.613-6.84 12.085-17.906 17.34-31.594 15.478-13.623-1.854-22.584-9.995-26.88-23.043-2.644-8.043-2.51-8.077-11.21-8.08-49.82-.013-99.64-.034-149.46-.047-6.1-.002-6.1.012-7.996 5.958-3.13 9.82-12.25 16.513-22.18 16.27-10.19-.247-19.017-7.55-21.502-17.788-1.828-7.53-1.845-7.363-9.533-8.15-20.86-2.142-41.703-4.45-62.554-6.665-20.026-2.126-40.057-4.196-60.082-6.328-20.52-2.185-41.035-4.438-61.556-6.618-15.872-1.686-31.75-3.306-48.006-4.995-.655 2.137-1.166 4.023-1.806 5.864-4.9 14.107-19.14 23.688-33.63 22.652-14.503-1.036-26.616-11.46-29.187-25.895-2.45-13.76 2.497-24.852 13.697-33.137 4.297-3.18 4.417-3.148 2.22-8-18.34-40.51-36.715-81.006-55.065-121.514-13.54-29.888-27.054-59.785-40.587-89.675-1.025-2.262-2.116-4.495-3.23-6.856-3.76.442-7.337 1.184-10.923 1.232-13.763.188-25.468-9.51-27.66-22.67-2.215-13.31 5.513-26.016 18.93-30.19 4.043-1.258 5.145-2.72 4.402-6.943-1.238-7.033-1.742-14.204-2.363-21.333-.325-3.718-1.27-5.8-5.745-6.374-11.632-1.49-18.67-8.72-21.998-19.774v-10c.51-1.044 1.054-2.073 1.525-3.134 6.467-14.543 22.958-19.915 36.293-11.383 3.65 2.335 5.593 1.806 8.448-.932 32.235-30.91 64.583-61.7 96.887-92.535 28.688-27.385 57.362-54.784 86.03-82.19 2.25-2.15 4.41-4.393 6.635-6.62-1.362-1.933-2.44-3.4-3.452-4.912-6.05-9.032-8.083-18.99-6.033-29.577 3.283-16.958 17.463-29.52 34.287-30.823 17.035-1.32 33.678 9.68 39.67 26.215 1.884 5.203 1.882 5.195 7.034 4.218 19.96-3.786 39.93-7.497 59.86-11.428 2.823-.556 5.73-1.75 8.086-3.383 7.602-5.27 15.596-7.053 24.64-4.53 2.605.73 5.632.777 8.312.29 22.444-4.08 44.852-8.356 67.27-12.577 32.89-6.193 65.77-12.445 98.682-18.51 3.838-.707 5.598-1.862 5.874-6.21.69-10.91 7.583-18.824 18.142-22.02.948-.287 1.877-.638 2.815-.96h5c.79.25 1.567.542 2.368.742 14.74 3.694 22.173 18.094 16.646 32.28-.537 1.377-1.11 2.74-1.778 4.384 1.234 1.008 2.322 2.006 3.516 2.857 50.724 36.183 101.476 72.324 152.143 108.585 3.19 2.28 5.274 2.575 8.606.004 8.44-6.513 19.27-4.05 25.083 4.895 1.255 1.93 3.34 3.638 5.428 4.66 18.85 9.24 23.31 33.152 8.92 48.432-1.128 1.196-2.26 2.388-3.527 3.73.87 1.814 1.606 3.475 2.447 5.082 7.032 13.43 14.09 26.845 21.126 40.272 23.895 45.592 47.78 91.188 71.677 136.78 3.79 7.228 7.62 14.435 11.444 21.645 1.036 1.952 1.98 3.542 4.91 3.104 13.176-1.964 19.214 1.418 24.997 13.548v10zm-260.01 242.985l.998-1.01.996-1 1.005-.99c6.287-6.414 12.638-12.767 18.852-19.25 29.846-31.145 59.643-62.34 89.487-93.486 27.655-28.865 55.363-57.68 83.02-86.545 9.563-9.98 19.056-20.03 28.522-30.103 1.054-1.123 1.72-2.612 2.565-3.932l-1.114-1.005-64.83 36.887c.383 1.377.603 2.17.82 2.962 2.355 8.474.408 15.878-5.893 21.94-6.263 6.028-13.758 7.832-22.152 5.496-5.68-1.58-5.673-1.646-9.148 3.066-39.05 52.95-78.1 105.896-117.12 158.866-1.166 1.583-1.996 3.413-2.982 5.128l-.992 1.004-1 .995-1.013.995-.022-.02m-39.998-616.97l.026-.026 1.003 1 2.99 1.98 1.01 1.014c.668.733 1.25 1.57 2.015 2.184 32.893 26.514 65.76 53.06 98.786 79.41 2.698 2.153 6.404 3.215 9.805 4.25 2.097.64 5.175 2.54 6.462-.984 1.19-3.26-2.255-4.038-4.08-5.337-33.753-24.016-67.555-47.963-101.378-71.88-3.784-2.674-7.76-5.076-11.648-7.604l-1.014-1.012-2.98-1.99-1-1.007m171.988 165.012c-.33-.676-.663-1.352-.994-2.028l-2.014-2.965-1-2c-.335-.666-.668-1.333-1-2l-1-2-1-2.002c-.33-.675-.663-1.35-.994-2.025l-1.714-3.9-.93.614 2.694 3.242.993 2.026c.332.668.666 1.334 1 2 .332.67.664 1.336.997 2.003l1 2.003c.33.667.664 1.335.996 2.002l2.005 2.975.993 2.026c.335.666.668 1.333 1 2l1 2 1 2 .995 1.982-.03.03c-.332-.662-.665-1.322-1-1.982-.332-.667-.666-1.333-1-2l-.998-2-1-2m11.018 20.976l.007-.007c-.336-.664-.67-1.328-1.007-1.992l.007-.008c.33.67.662 1.338.993 2.007M219.19 705.862c.09.226.184.453.167.412l-.203-.383-1.007-1.993c-.474-1.764-.807-3.578-1.44-5.28-19.665-52.747-39.355-105.484-59.05-158.22-2.778-7.44-5.598-14.864-8.038-21.34-2.743 2.213-5.335 4.56-8.186 6.53-2.37 1.64-2.736 3.19-1.5 5.828 4.73 10.108 9.225 20.326 13.817 30.5 16.59 36.742 33.16 73.493 49.785 110.218 4.803 10.612 9.768 21.15 14.66 31.722l.993 2.008m240.988-531.955c-1.65.19-3.322.274-4.95.58-15.377 2.9-30.75 5.826-46.118 8.77-5.262 1.01-10.51 2.093-15.763 3.142l.156.93h60.938l5.713-13.448.026.025zm68 628.003c-4.96-.39-9.916-.843-14.88-1.155-25.737-1.62-51.476-3.2-77.214-4.804-14.113-.88-28.222-1.82-42.337-2.67-9.14-.546-18.29-.973-27.435-1.454 9.55 1.64 19.116 2.755 28.69 3.79 19.84 2.143 39.685 4.223 59.522 6.368 20.497 2.217 40.98 4.566 61.487 6.682 8.523.88 8.544.67 12.14-6.782l.03.027m116.994-663c-1.816.2-3.655.28-5.446.617-35.202 6.636-70.397 13.294-105.592 19.97-11.894 2.255-23.776 4.57-35.77 6.876 2.455 2.936 4.857 5.423 6.808 8.224 3.575 5.134 3.462 5.202 9.377 3.448 33.53-9.94 67.075-19.843 100.59-29.834 10.037-2.99 20-6.224 29.996-9.347l2.21-.292c-.05-.193-.103-.387-.154-.582l-2.02.922m-407.992 207c-1.187.585-2.437 1.07-3.55 1.77-26.508 16.64-53.002 33.3-79.494 49.966-5.464 3.438-10.908 6.91-16.226 10.28 1.773 6.944 1.8 7.16 7.95 6.742 13.436-.918 26.868-1.96 40.274-3.243 1.86-.178 4.04-1.618 5.254-3.13 4.27-5.318 8.205-10.906 12.23-16.418 11.187-15.326 22.356-30.665 33.532-45.998l.03.03m20.977-19.045c1.904-1.002 3.882-1.887 5.703-3.024 30.366-18.955 60.715-37.94 91.064-56.925 7.595-4.75 15.18-9.52 23.134-14.51l-10.27-23.612c-1.386.208-2.343.37-3.304.493-9.178 1.17-18.393 1.718-26.668-3.304-3.493-2.12-5.06-1.304-7.19 1.667-9.218 12.852-18.662 25.542-27.99 38.314-14.83 20.3-29.633 40.62-44.448 60.93l-.03-.03zM135.154 403.86c1.185-.59 2.43-1.09 3.547-1.787 32.503-20.298 64.936-40.705 97.53-60.85 5.94-3.674 10.707-8.108 14.816-13.75 25.008-34.344 50.242-68.524 75.38-102.773.99-1.35 1.79-2.838 2.678-4.262-.302-.202-.604-.406-.906-.61-.985.834-2.015 1.62-2.95 2.505-18 17.09-36.017 34.16-53.97 51.3-26.392 25.192-52.72 50.45-79.108 75.646-8.916 8.512-17.988 16.86-26.884 25.393-10.09 9.68-20.065 19.482-30.09 29.23l-.042-.04zM875.18 530.9l-.024-.02c-.697 1.678-1.213 3.462-2.124 5.015-9.003 15.347-18.083 30.648-27.113 45.98-1.885 3.196-3.654 6.46-5.41 9.577.816.605.946.784 1.076.785 20.777.178 41.555.38 62.333.406 1.09 0 2.85-1.297 3.166-2.336 2.246-7.372 6.9-12.367 14.02-15.137 2.237-.87 2.713-2.303 2.437-4.688-2.315-19.966-4.452-39.952-6.7-59.926-.57-5.063-1.346-10.104-1.902-14.23l-16.78-3.467.04.037c-.766-.87-1.43-1.866-2.313-2.592-6.02-4.944-8.81-11.54-7.68-18.977 1.264-8.33 5.913-14.758 14.343-17.628 2.31-.786 4.73-1.243 7.644-1.99-4.817-43.283-9.62-86.405-14.42-129.527l-.846.087 12.613 127.533-1.15.113c-.41-3.113-.867-6.22-1.216-9.34-1.494-13.393-2.963-26.787-4.43-40.182-1.92-17.53-3.84-35.06-5.734-52.593-.786-7.28-1.426-14.573-2.295-21.842-.288-2.41-.43-5.39-3.673-5.81-6.736-.868-12.075-4.41-17.416-8.9l-310.538 257.86c2.088 5.826 4.43 10.845 5.6 16.124.868 3.918 2.72 4.584 6.156 4.61 13.992.11 27.98.525 41.973.662 42.32.412 84.64.75 126.96 1.096 1.564.013 3.13-.222 5.323-.39-.923-2.373-1.474-4.088-2.235-5.706-6.59-14.022-13.29-27.994-19.798-42.054-3.137-6.775-5.932-13.71-8.88-20.57l-.035.028c.756 1.062 1.69 2.04 2.243 3.198 9.68 20.298 19.372 40.59 28.896 60.962 1.54 3.293 3.42 4.768 7.19 4.664 8.656-.237 17.327-.095 25.99.007 17.656.207 35.312.414 52.963.81 3.396.076 5.144-1.5 6.697-4.13 7.796-13.193 15.613-26.375 23.548-39.485 3.687-6.097 7.66-12.026 11.503-18.032M625.164 456.88l.016.02c-3.416 3.136-6.674 6.468-10.27 9.38-32.49 26.296-65.04 52.516-97.565 78.765-4.976 4.017-5.048 4.728-1.095 10.188 15.228-4.264 28.816-.93 40.525 10.068C660.935 479.24 764.76 393.45 867.945 308.19l-5.42-22.666c-2.987 1.87-5.927 3.505-8.65 5.443-39.346 28.013-78.645 56.093-118.01 84.08-5.403 3.842-11.1 7.275-16.658 10.898l-.09-.1c1.34-1.222 2.572-2.59 4.033-3.645 40.922-29.56 81.867-59.085 122.808-88.62 3.46-2.495 6.912-5 10.367-7.502l-.18-1.297c-114.862-20.85-229.723-41.7-345.64-62.745 1.56 2.132 2.384 3.346 3.295 4.49 42.562 53.42 85.15 106.818 127.668 160.276 4.123 5.185 7.792 10.73 11.67 16.108l.043-.043c-1.092-1.014-2.327-1.913-3.26-3.06-15.975-19.638-31.95-39.28-47.85-58.977-31.083-38.504-62.154-77.017-93.113-115.62-2.505-3.124-5.34-4.672-9.172-5.19-9.678-1.312-19.33-2.813-29.398-4.298-.41.582-1.177 1.454-1.708 2.452-17.61 33.095-35.17 66.217-52.837 99.283-1.503 2.813-1.41 5.233-.184 8.032 10.685 24.424 21.33 48.866 31.882 73.347 1.13 2.62 2.553 3.832 5.515 4.02 8.966.568 17.912 1.475 26.865 2.252 13.925 1.208 27.848 2.437 41.775 3.62 13.762 1.167 27.53 2.256 41.29 3.44 13.922 1.195 27.84 2.437 41.756 3.71 11.783 1.076 23.56 2.224 35.336 3.34-12.146-.047-24.244-.702-36.326-1.596-20.253-1.498-40.497-3.13-60.743-4.738-14.44-1.146-28.873-2.346-43.31-3.514-14.106-1.142-28.21-2.307-42.322-3.373-1.854-.14-3.748.243-6.494.45 20.46 46.975 40.32 93.188 60.752 139.682 2.38-1.748 3.88-2.77 5.298-3.9 30.482-24.3 60.933-48.638 91.452-72.89 5.45-4.332 11.18-8.312 16.78-12.454m-472.406 57.1l88.832 237.288c13.307-1.553 19.547-.976 26.592 3.777 3.62 2.442 5.528 1.74 8.366-1.045 14.86-14.577 29.956-28.913 44.925-43.38 17.007-16.436 33.943-32.943 50.97-49.355 2.128-2.052 2.41-3.562.907-6.404-1.803-3.405-2.802-7.41-3.347-11.27-.907-6.414.413-12.56 4.39-18.044-1.116-.98-1.943-1.788-2.847-2.494-34.505-26.977-69.055-53.897-103.483-80.972-4.45-3.498-9.16-5.7-14.677-6.88-31.43-6.728-62.816-13.663-94.225-20.49-1.688-.368-3.45-.404-6.402-.73m11.485-58.64c1.59 1.36 2.917 2.58 4.328 3.694 29.027 22.92 58.037 45.865 87.15 68.676 2.268 1.778 5.147 3.182 7.954 3.807 34.613 7.718 69.263 15.266 103.91 22.834 5.94 1.298 11.902 2.482 18.334 3.82 0-2.247.12-3.722-.02-5.172-1.06-10.932-2.165-21.86-3.275-32.788-1.885-18.54-3.77-37.083-5.68-55.623-1.26-12.25-2.59-24.49-3.824-36.743-.22-2.195-.64-3.726-3.363-3.968-12.26-1.09-19.592-8.115-22.856-19.668-.65-2.308-1.85-2.76-4.002-2.56-10.446.967-20.904 1.797-31.354 2.727-20.566 1.83-41.13 3.692-61.69 5.55-17.248 1.555-34.488 3.186-51.744 4.63-3.454.29-5.753 1.65-7.774 4.48-7.748 10.843-15.73 21.52-23.598 32.28-.86 1.175-1.546 2.482-2.494 4.024m258 212.86l111.05 127.498c11.848-5.89 19.457-5.75 28.72 1.237 3.93 2.963 6.818 2.7 10.765.455 30.535-17.375 61.167-34.58 91.764-51.853 5.032-2.84 10.03-5.746 15.608-8.944-2.29-2.347-4.03-4.302-5.946-6.066-24.37-22.446-48.724-44.91-73.232-67.203-1.913-1.74-4.887-2.93-7.487-3.194-16.39-1.652-32.814-2.925-49.22-4.412-29.335-2.658-58.662-5.403-88-8.016-1.708-.152-3.823.063-5.187.96-9.442 6.213-18.734 12.652-28.836 19.538m87.414-484.702c1.158 10.932-.53 9.234 8.286 10.918 41.187 7.867 82.412 15.526 123.62 23.287 62.952 11.855 125.9 23.737 188.853 35.596 6.116 1.153 12.25 2.226 18.376 3.336.142-.32.286-.64.43-.958l-137.92-111.568c-2.003 1.378-3.52 2.395-5.008 3.448-11.54 8.15-25.485 3.856-32.32-7.397-2.302-3.79-4.204-3.956-7.916-2.863-50.32 14.827-100.684 29.507-151.03 44.246-1.867.547-3.666 1.322-5.377 1.948M196.843 410.36c1.49 0 2.274.06 3.047-.007 14.095-1.204 28.186-2.458 42.283-3.63 13.768-1.143 27.546-2.162 41.313-3.313 18.244-1.524 36.476-3.204 54.727-4.648 6.868-.543 7.17-.272 8.455-6.78 2.668-13.508 18.368-23.473 31.1-19.268 4.054 1.34 5.54-.173 7.24-3.466 7.186-13.915 14.552-27.738 22.034-41.496 1.52-2.795 1.513-5.062.253-7.93-8.907-20.287-17.645-40.65-26.467-60.974-.368-.848-1.024-1.57-1.65-2.507-1.417.805-2.586 1.407-3.695 2.104-40.352 25.354-80.716 50.69-121.002 76.147-2.594 1.64-4.955 3.967-6.794 6.443-13.614 18.324-27.073 36.764-40.57 55.176-3.32 4.53-6.6 9.09-10.272 14.152m82.99 354.933c1.217 4.26 2.902 7.867 3.127 11.564.245 4.02 1.918 5.074 5.48 5.25 10.474.52 20.94 1.217 31.405 1.89 18.77 1.207 37.535 2.483 56.307 3.66 13.127.82 26.263 1.485 39.39 2.29 20.102 1.234 40.202 2.51 60.3 3.805 13.455.868 26.9 1.866 40.36 2.676 4.01.24 8.047.037 13.28.037L419.745 669.9c-47.017 32.057-93.614 63.828-139.912 95.393M398.948 401.2c-.613 1.353-1.046 2.074-1.277 2.855-2.79 9.46-8.684 15.942-18.19 18.91-2.77.864-3.503 2.74-3.212 5.373.64 5.792 1.26 11.586 1.847 17.383 3.696 36.44 7.412 72.876 11.01 109.323.295 2.984 1.364 4.286 4.36 4.93 25.062 5.385 50.09 10.924 75.118 16.466 2.997.663 5.503.13 7.88-1.87 3.952-3.32 8.052-6.462 12.078-9.694 6.075-4.88 12.14-9.77 18.164-14.622-.33-1.1-.46-1.75-.717-2.346-20.1-46.467-40.22-92.925-60.286-139.407-1.053-2.442-2.567-3.554-5.235-3.766-13.756-1.092-27.5-2.326-41.536-3.534m161.155 216.537c-.045-.06.28.54.754.98 13.522 12.595 27.013 25.226 40.667 37.676 1.44 1.312 3.815 1.984 5.84 2.207 8.43.924 16.894 1.512 25.335 2.314 23.34 2.22 46.673 4.505 70.01 6.73 21.02 2.002 42.046 3.926 63.062 5.965 4.518.436 8.67.68 10.353-4.904.35-1.164 1.518-2.203 2.532-3.02 2.257-1.817 2.096-3.638.927-6.105-9.117-19.26-18.17-38.55-27.06-57.917-1.616-3.522-3.705-4.864-7.617-4.878-30.8-.113-61.6-.44-92.4-.69-8.493-.068-16.986-.113-25.48-.138-18.15-.05-36.302-.088-54.454-.103-2.275-.002-4.504-.35-5.52 2.848-1.95 6.127-4.384 12.1-6.95 19.034m347.25-300.13c-7.108 1.504-7.402 1.795-6.85 6.777 1.353 12.245 2.73 24.488 4.103 36.732 3.23 28.786 6.52 57.566 9.63 86.366.384 3.565 1.602 5.64 5.047 7.043 9.24 3.76 15.254 15.11 11.908 24.11-1.333 3.587-.042 5.312 3.168 6.99 20.966 10.95 41.832 22.093 62.73 33.175 5.003 2.653 10.054 5.224 14.98 8.01 2.717 1.533 4.27.12 6.05-1.597 1.73-1.67 1.924-3.21.685-5.28-1.88-3.143-3.508-6.435-5.276-9.645-28.36-51.51-56.722-103.02-85.093-154.525-6.984-12.678-14-25.338-21.084-38.155m-132.82 465.318c1.558.584 2.774 1.066 4.01 1.498 6.654 2.327 6.69 2.348 11.048-3.582 40.03-54.468 80.063-108.935 120.002-163.47 1.372-1.873 4.94-3.724 2.364-6.71-2.764-3.202-5.165.186-7.333 1.412-32.313 18.278-64.542 36.704-96.862 54.97-2.863 1.62-4.026 2.886-3.103 6.53 2.31 9.096-3.694 18.1-12.712 19.11-3.7.417-4.636 1.94-5.093 5.198-2.795 19.944-5.764 39.863-8.668 59.792-1.22 8.37-2.423 16.743-3.655 25.253m94.18-511.06c-6.827-6.564-13.618-12.434-23.59-13.096-5.115-.34-10.154-1.806-15.23-2.75-91.357-17.023-182.718-34.04-274.076-51.066-13.755-2.562-27.514-5.1-41.238-7.81-3.618-.715-5.982-.39-7.063 3.778-.554 2.135-2.02 4.305-3.657 5.828-3.203 2.978-3.174 4.215.602 7.675 1.458 1.337 3.793 1.994 5.837 2.37 60.252 11.074 120.52 22.07 180.782 33.088 55.02 10.06 110.043 20.13 165.062 30.207 8.456 1.55 8.736 1.4 12.57-8.22m-292.2 527.19l.178 1.076c5.257.27 10.518.487 15.77.813 20.25 1.254 40.5 2.52 60.748 3.825 13.276.854 26.545 1.836 39.823 2.672 12.947.814 25.906 1.457 38.852 2.31 3.117.204 4.878-.51 5.663-3.897.7-3.01 2.048-5.972 3.63-8.646 1.376-2.324 1.246-3.84-.74-5.583-3.875-3.403-7.636-6.94-11.428-10.44-14.314-13.204-28.676-26.358-42.88-39.68-2.53-2.372-4.683-2.79-7.432-.807-.804.58-1.744.968-2.612 1.463-25.447 14.52-50.896 29.035-76.336 43.562-7.755 4.428-15.49 8.885-23.234 13.33M773.494 676.44l-165.16-14.97-.393.98c6.17 5.74 12.343 11.48 18.51 17.223 18.155 16.897 36.386 33.715 54.388 50.77 3.165 3 5.487 2.92 9.043.89 22.977-13.135 46.077-26.05 69.126-39.058 5.176-2.922 10.31-5.92 15.304-8.79l-.816-7.046m-86.54 59.634c20.08 18.675 39.41 36.655 58.852 54.735 6.205-4.573 12.384-8.326 19.844-8.08 4.188.14 5.31-1.643 5.882-5.31 4.247-27.117 8.673-54.21 12.934-81.325.195-1.253-.226-3.14-1.09-3.918-2.546-2.288-5.46-4.165-8.444-6.36l-87.978 50.257m325.057-189.14c0-4.52-.752-8.205.186-11.394 1.285-4.366-.63-5.828-3.93-7.602-23.913-12.857-47.75-25.856-71.59-38.85-7.535-4.105-7.39-4.03-13.974 1.825-2.384 2.12-3.133 4.03-2.727 7.26 1.705 13.543 2.99 27.14 4.494 40.707 1.12 10.093 2.247 20.186 3.6 30.247.205 1.52 1.516 3.986 2.56 4.12 6.8.88 12.14 4.26 16.795 9.264l64.587-35.575m-740.228-7.606l-.405.85 104.05 82.094c5.745-3.182 10.905-6.037 16.29-9.018.028-.324.193-.992.128-1.64-1.392-13.89-2.93-27.77-4.153-41.677-.39-4.45-2.496-5.996-6.706-6.868-20.858-4.32-41.64-8.995-62.45-13.54-15.585-3.405-31.17-6.803-46.757-10.204m195.245-325.11c-4.93-.918-8.806-1.95-12.74-2.253-2.29-.177-5.048.204-6.95 1.38-19.95 12.34-39.738 24.938-59.657 37.326-2.715 1.69-3.103 3.33-1.88 6.11 8.166 18.583 16.22 37.213 24.345 55.81.537 1.23 1.36 2.333 2.522 4.284l54.36-102.658m441.992 392.12c-.808-2.032-1.7-3.377-1.827-4.787-.274-3.1-1.994-3.7-4.713-3.723-20.47-.15-40.94-.362-61.407-.655-3.026-.043-4.87 1.08-6.403 3.703-11.418 19.544-22.97 39.01-34.454 58.515-1.133 1.924-2.885 3.68-.28 6.088 2.278 2.106 3.95 1.358 6.15.092 26.827-15.448 53.698-30.82 80.547-46.23 7.34-4.215 14.638-8.5 22.385-13.002M782.844 661.68c3.344 0 6.32-.582 8.938.14 3.58.99 4.983-.482 6.607-3.245 11.05-18.794 22.262-37.494 33.39-56.245.794-1.337 1.322-2.832 2.305-4.975h-81.71c10.364 21.884 20.387 43.04 30.468 64.325m-533.42-133.2l.25-.72-88.118-68.825c-1.447 1.728-2.348 2.697-3.13 3.755-4.65 6.3-9.246 12.642-13.918 18.925-1.49 2.004-.146 3.148.84 4.773 2.563 4.213 6.372 8.506 6.758 13.018.657 7.667 4.678 9.695 11.014 10.248.822.073 1.633.308 2.446.486 27.953 6.112 55.905 12.225 83.857 18.34m345.45 129.02c-13.622-12.58-26.487-24.463-39.247-36.25-.942.48-1.423.646-1.81.936-18.116 13.617-37.18 12.686-53.663-2.867-2.26-2.136-3.747-1.85-5.957-.3-8.173 5.73-16.434 11.337-24.667 16.983-3.77 2.586-7.548 5.158-11.32 7.737l.31 1.05 136.353 12.71M489.5 586.98c-6.083-1.294-12.032-2.7-18.046-3.712-1.17-.197-2.775.927-3.885 1.81-13.288 10.572-26.53 21.2-39.754 31.848-3.057 2.46-6.006 5.057-8.328 7.02 1.744 5.547 3.083 10.32 4.814 14.944.45 1.2 2.03 2.597 3.258 2.776 5.916.867 11.882 1.458 17.85 1.896 1.545.113 3.434-.27 4.696-1.118 13.946-9.393 27.793-18.93 41.685-28.403 1.737-1.18 2.52-2.45 1.51-4.585-3.26-6.894-4.48-14.2-3.802-22.475m-23.54-4.12l-.314-1.15c-24.913-5.43-49.825-10.862-75.47-16.453 1.59 15.86 3.05 30.563 4.547 45.26.22 2.165 1.586 2.84 3.714 3.2 5.582.946 11.074 2.28 15.466 6.305 2.08 1.905 4.005 1.387 6.147-.37 7.593-6.23 15.345-12.266 23.016-18.4 7.646-6.116 15.265-12.262 22.894-18.393m-88.767 78.425L276.545 760.17l.715.874L415.8 666.11c-2.7-3.028-2.753-3.132-6.033-1.437-10.053 5.196-19.757 4.947-29.164-1.573-.93-.644-2.005-1.075-3.41-1.814m8.274-286.68c.68.797 1.046 1.352 1.53 1.77 6.082 5.26 10.82 11.252 11.288 19.746.143 2.584 2.27 2.385 4.102 2.54 7.12.603 14.23 1.292 21.352 1.855 6.027.477 12.067.824 19.015 1.29l-31.708-73.16-1.275.276-24.306 45.683m-2.633-125.137l61.425-38.42-.348-1.07c-16.325-2.97-32.65-5.934-48.974-8.915-2.548-.465-3.702.964-4.263 3.107-2.308 8.823-8.032 15.037-15.11 20.35-1.045.785-2.08 3.036-1.685 4.047 2.643 6.765 5.676 13.38 8.954 20.9M185.14 417.033l-.47-1.24c-4.26.37-8.52.745-12.78 1.11-8.93.764-17.863 1.54-26.798 2.273-2.99.245-4.865 1.215-5.122 4.74-.174 2.394-1.658 4.664-2.21 7.068-.286 1.236-.336 3.274.394 3.88 6.875 5.69 13.942 11.15 21.378 17.015l25.608-34.845m-28.157 38.275c-7.407-5.792-14.144-10.946-20.745-16.27-3.54-2.856-5.36.64-7.81 1.805-2.45 1.165-1.96 3.035-1.184 5.083 3.775 9.968 7.47 19.967 11.22 29.944.27.72.774 1.35 1.54 2.65 5.78-7.903 11.23-15.354 16.98-23.212m236.022-261.745c-.005.38-.01.762-.017 1.143.99.384 1.95.934 2.976 1.126 17.458 3.265 34.924 6.485 52.39 9.718 3.784.7 6.795-.612 9.403-3.535-.474-1.603-.966-3.17-1.398-4.755-1.473-5.4-1.466-5.464-7.142-5.365-17.43.304-34.863.648-52.294 1.023-1.31.028-2.614.422-3.92.645m297.127 618.287c0-.17.002-.34.004-.51l-121.197-7.31c.753 7.435 1.163 7.858 7.488 7.857 36.262-.006 72.523-.026 108.786-.04h4.92M477.447 577.056l.66 1.275c2.9.696 5.813 1.35 8.7 2.1 2.93.762 4.563-.256 5.745-3.11 3.003-7.25 7.868-13.053 14.432-17.44 3.696-2.47 3.645-2.667.114-6.64-9.872 7.927-19.762 15.87-29.652 23.815m-60.926 83.892c2.154 3.05 2.198 3.115 5.61.817 6.218-4.187 12.388-8.444 18.55-12.713.856-.59 1.555-1.407 2.905-2.655-6.115-.533-11.38-1.16-16.66-1.328-1.234-.04-3.048 1.176-3.685 2.32-2.39 4.3-4.407 8.81-6.72 13.56M121.884 444.705c-.486.104-.973.21-1.46.313.882 7.352 1.763 14.705 2.646 22.057 1.116 9.303 1.116 9.307 10.155 11.095.205.04.485-.297.958-.608l-12.3-32.858M870.52 267.336c-.578-3.76-.578-3.76-4.18-3.616 1.265 1.095 2.37 2.052 4.18 3.616m-512.09 523.93c-.01.06-.017.123-.026.184.94.07 1.882.14 2.822.208l.02-.392h-2.817zM459.972 205.58c-.52.452-.905.7-1.14 1.05-.07.103.293.716.44.71.42-.023.833-.24 1.248-.383l-.547-1.378m38.392 7.56c-.39.33-.717.61-1.045.887.228.186.497.56.677.52.386-.084.725-.38 1.084-.59l-.714-.818zm187.793 209.598c-.09 9.072-7.864 16.986-16.788 17.088-9.03.104-17.06-8.083-16.974-17.302.086-9.052 8.003-17.013 16.797-16.89 9.66.133 17.06 7.594 16.965 17.104M712.182 390.903l6.936-5.062.09.1-7.05 4.94.024.024zM625.16 456.88l5.02-3.97-.034-.04-4.967 4.03-.02-.02zm13.98-11l-3.986 2.982.043.043 3.983-2.987-.04-.04M640.193 444.9c1.328-.995 2.655-1.99 3.983-2.988l-.03-.03-3.99 2.982.037.037zm-6.053 4.976l-3.993 2.995.033.04c1.334-.997 2.668-1.994 4.004-2.99l-.043-.043zm74.055-55.962l3.986-3.01-.02-.026-4.005 2.99.04.046M708.154 393.868l-3 1.996.047.053 2.996-2.003-.04-.046zm-3 1.996l-3 1.998.042.042 3.005-1.987-.045-.053M701.14 398.878l-2.982 1.987.035.035c.996-.66 1.992-1.32 2.988-1.982l-.04-.04zm-3.997 3.002l-1.987.984.037.037 1.984-.985-.034-.034zm-40.968 4.99l-.98-1.99-.037.036c.33.66.66 1.322.988 1.983l.03-.03zm-21.022 41.992l-1.013 1.014.042.042 1.014-1.013-.043-.043M639.18 445.917l1.014-1.016-.036-.035-1.017 1.014.04.04zm4.997-4.004l1-1-.03-.032-1 1.003.03.03zm1-1l-.03-.03.03.03zm11.983-33l.03-.03-.03.03zm.03-.03l-1.015-1.014-.03.03 1.014 1.01.03-.03zm-1.997-3.003l-.998-1.004-.042.042c.334.333.67.665 1.003.998l.037-.037zm39.962-2.015l.037.037-.037-.037zm-42.015.04l1.014 1.014.043-.045-1.016-1.013-.04.042zm45.018-2.04l-1.016 1.016.035.036 1.014-1.015-.03-.033zm3.022-1.947c.34-.338.678-.676 1.016-1.015l-.042-.04-1.013 1.015.04.04zm14.01 121.948l-6-12.983-.05.042 6.008 12.976.04-.033M705.195 499.854l-2.626-4.397 1.116-.46 1.462 4.897.045-.04zm178.95 16.028c-1 1.66-2 3.32-3.003 4.98l.05.042 3.004-4.98-.05-.042zm-5.955 10.02l3.002-5-.05-.04-2.997 5.004.044.038M878.146 525.865l-2.99 5.017.025.022 3.01-5-.043-.04zm10.042-16.97l2.01-2.97-.048-.04-2.01 2.97.048.04zm-1.042 1.99l-2.008 2.97.05.044 2.01-2.975-.052-.042M892.14 501.876c-.333.66-.667 1.318-1 1.98l.045.038.998-1.975-.043-.045zm-184.944 1.978l-1.01-1.97-.048.042 1.008 1.97.05-.042m-2.046-3.96l.988 2.033.05-.04-.993-2.032-.046.04M895.144 496.88l-.99 1.983.04.04.984-1.987-.034-.035zm-194.002-5.955c.124.207.248.413.227.38l-.188-.415-.04.035zm6.004 12.97l1 2 .05-.04-1-2-.05.04zm190-10.013c-.33.66-.658 1.322-.988 1.983l.034.034c.33-.664.657-1.326.984-1.988l-.03-.03zm-6.006 9.972l-.99 2.032.047.04c.33-.68.66-1.355.99-2.033l-.047-.04zm-182.994 2.044l.992 2.026.05-.042c-.33-.676-.66-1.352-.992-2.027l-.05.043zm179.05 5.028l.99-2.03-.05-.042-.99 2.03.05.042m-3 4.998l.993-2.025-.053-.045c-.33.676-.662 1.35-.992 2.027l.05.04M715.148 520.9l1 2.01.035-.028c-.33-.672-.663-1.344-.994-2.016l-.043.034zm-13.965-30.01l-1-2-.042.035c.336.666.67 1.333 1.003 2l.04-.036zm-2.04-3.966l1 2 .04-.034-1-2-.04.034zm.04-.034l-1-2.002-.04.036 1 2 .04-.034zm-1-2.002c-.116-.21-.232-.42-.215-.387l.173.424.044-.035zm199.973 7.975l-1.01 1.02.03.03 1.017-1.013-.037-.037m-1.998 3.002l-1.015 1.016.034.036 1.014-1.016-.03-.035"/>
    <path fill="#F6FAFA" d="M894.153 498.863l.04.04-.04-.04zm-1.97 3.057l-.043-.044.043.043z"/>
</svg>
